<?xml version="1.0" encoding="UTF-8"?>
<svg id="_Слой_1" xmlns="http://www.w3.org/2000/svg" version="1.1" viewBox="0 0 100 100">
  <!-- Generator: Adobe Illustrator 29.4.0, SVG Export Plug-In . SVG Version: 2.1.0 Build 152)  -->
  <defs>
    <style>
      .st0 {
        fill: #0f0f0f;
      }

      .st1 {
        fill: #1fb5dd;
      }
    </style>
  </defs>
  <rect class="st0" y="0" width="100" height="100"/>
  <g>
    <path class="st1" d="M19.5,77.43c.13-15.7,6.3-30.45,17.42-41.58,11.12-11.12,25.87-17.29,41.58-17.42v19.83c-10.41.13-20.18,4.24-27.55,11.61s-11.49,17.14-11.61,27.55h-19.84Z"/>
    <path class="st1" d="M78,18.94v18.83c-10.36.25-20.06,4.4-27.41,11.75-7.35,7.35-11.5,17.05-11.75,27.41h-18.83c.25-15.38,6.36-29.81,17.27-40.72,10.91-10.91,25.33-17.01,40.72-17.27M79,17.93c-16.03,0-31.1,6.24-42.43,17.57-11.33,11.34-17.57,26.4-17.57,42.43h20.83c0-10.46,4.07-20.3,11.47-27.7s17.24-11.47,27.7-11.47v-20.83h0Z"/>
  </g>
  <rect class="st1" x="58" y="56.93" width="21" height="21"/>
</svg>